# xmcd
#
# Track frame offsets: 
#        150
#        14310
#        32750
#        50348
#        71787
#        87941
#        105811
#        121484
#        137239
#        151152
#        178374
#        197833
#
# Disc length: 2916 seconds
#
# Revision: 0
# Processed by: cddbd v1.5.2PL0 Copyright (c) Steve Scherf et al.
# Submitted via: ExactAudioCopy v1.1
#
DISCID=a00b620c
DTITLE=K. Michelle - Anybody Wanna Buy A Heart?
DYEAR=2014
DGENRE=R&B
TTITLE0=Judge Me
TTITLE1=Love 'Em All
TTITLE2=Going Under
TTITLE3=Cry
TTITLE4=How Do You Know?
TTITLE5=Hard To Do
TTITLE6=Maybe I Should Call
TTITLE7=Something About The Night
TTITLE8=Miss You, Goodbye
TTITLE9=Build A Man Intro - Build A Man
TTITLE10=Drake Would Love Me
TTITLE11=God I Get It
EXTD=
EXTT0=
EXTT1=
EXTT2=
EXTT3=
EXTT4=
EXTT5=
EXTT6=
EXTT7=
EXTT8=
EXTT9=
EXTT10=
EXTT11=
PLAYORDER=
